<?xml version="1.0" standalone="no"?>
<!DOCTYPE svg PUBLIC "-//W3C//DTD SVG 20010904//EN"
 "http://www.w3.org/TR/2001/REC-SVG-20010904/DTD/svg10.dtd">
<svg version="1.0" xmlns="http://www.w3.org/2000/svg"
 width="512.000000pt" height="512.000000pt" viewBox="0 0 512.000000 512.000000"
 preserveAspectRatio="xMidYMid meet">

<g transform="translate(0.000000,512.000000) scale(0.100000,-0.100000)" stroke="none">
<path d="M2335 4799 c-744 -64 -1418 -465 -1768 -1052 -103 -173 -183 -386
-224 -592 -28 -141 -26 -493 4 -640 54 -265 157 -498 321 -725 89 -123 292
-330 409 -419 l83 -62 2 -493 3 -494 485 295 485 295 55 -6 c236 -24 311 -28
460 -22 270 10 466 45 715 128 350 116 652 304 906 565 160 164 271 321 359
505 325 686 190 1464 -349 2021 -488 505 -1201 760 -1946 696z m554 -294 c576
-83 1101 -401 1387 -840 185 -285 275 -632 244 -940 -35 -347 -163 -635 -399
-902 -293 -332 -723 -556 -1226 -640 -165 -27 -525 -24 -690 6 l-119 21 -326
-195 -325 -195 -5 325 -5 324 -89 61 c-404 275 -664 676 -727 1118 -18 132 -6
393 24 523 165 697 828 1239 1637 1338 47 6 101 13 120 15 74 9 390 -3 499
-19z"/>
<path d="M1343 3107 c-138 -51 -214 -206 -172 -347 18 -61 78 -131 138 -162
44 -23 66 -28 125 -28 118 0 208 56 258 159 27 56 30 166 6 222 -24 55 -87
119 -143 145 -56 27 -156 31 -212 11z"/>
<path d="M2445 3096 c-68 -31 -130 -101 -149 -167 -20 -65 -20 -102 -2 -163
20 -67 53 -111 113 -153 48 -33 61 -37 132 -41 92 -5 132 6 195 53 31 24 55
55 77 100 29 59 31 71 27 132 -8 112 -63 193 -163 239 -69 33 -161 33 -230 0z"/>
<path d="M3565 3096 c-98 -47 -157 -141 -157 -251 0 -159 117 -275 278 -275
117 0 209 60 257 169 28 64 21 181 -16 244 -31 52 -92 104 -145 123 -61 22
-159 17 -217 -10z"/>
</g>
</svg>
